<svg width="14" height="21" viewBox="0 0 14 21" fill="none" xmlns="http://www.w3.org/2000/svg">
  <path d="M1.91237e-07 8H5C5.55228 8 6 8.44772 6 9V15C6 18.3137 3.31371 21 1.91237e-07 21V8Z" fill="white"/>
  <path d="M2.05948e-07 6L0 1.625C-4.22469e-08 0.727538 0.783502 2.91663e-07 1.75 2.52433e-07L7.96923 0C11.2999 -1.3519e-07 14 2.50721 14 5.6C14 5.82091 13.8071 6 13.5692 6L2.05948e-07 6Z" fill="white"/>
  <path d="M14 8C14 11.3137 11.3137 14 8 14V9C8 8.44772 8.44772 8 9 8H14Z" fill="white"/>
</svg>
